<svg width="88" height="88" viewBox="0 0 88 88" fill="none" xmlns="http://www.w3.org/2000/svg">
<rect width="88" height="88" rx="44" fill="url(#paint0_linear_39_717)"/>
<g clip-path="url(#clip0_39_717)">
<path d="M46.7174 60.9869C48.1395 62.6731 50.7348 62.668 52.1566 60.9816C55.7077 56.7696 61.3416 48.746 61.4965 40.0878C61.6068 33.925 56.6977 28.7698 50.5338 28.7846C49.1255 28.788 47.7798 29.0575 46.5442 29.5455C44.9099 30.191 43.0904 30.191 41.456 29.5455C40.2204 29.0575 38.8747 28.788 37.4664 28.7846C31.3026 28.7698 26.3935 33.9249 26.5038 40.0878C26.6587 48.746 32.2926 56.7696 35.8437 60.9816C37.2655 62.668 39.8607 62.6731 41.2828 60.9869C42.703 59.303 45.2972 59.303 46.7174 60.9869Z" fill="url(#paint1_linear_39_717)"/>
<path d="M50.5341 28.7846C49.1257 28.788 47.78 29.0575 46.5444 29.5455C46.2065 29.679 45.8603 29.7832 45.5098 29.8615V60.0596C45.9591 60.2698 46.373 60.5784 46.7176 60.9869C47.2922 61.6681 48.0582 62.073 48.861 62.2028H50.0057C50.8113 62.0723 51.5804 61.6651 52.1567 60.9816C55.7079 56.7696 61.3417 48.746 61.4967 40.0878C61.607 33.9249 56.6979 28.7698 50.5341 28.7846Z" fill="url(#paint2_linear_39_717)"/>
<path d="M46.2297 29.6616C44.6781 30.1885 42.9863 30.1497 41.4562 29.5454C40.2203 29.0573 38.8748 28.7878 37.4666 28.7845C31.3029 28.7696 26.3933 33.9249 26.5038 40.0877C26.5467 42.4612 27.0017 44.7879 27.7116 47.0008H42.3086C40.6028 45.0682 39.5682 42.5297 39.5682 39.7497C39.5681 35.2218 42.3127 31.3344 46.2297 29.6616Z" fill="url(#paint3_linear_39_717)"/>
<path d="M39.5681 39.7497C39.5681 37.5545 40.2147 35.5109 41.3257 33.7961L36.3672 28.8375C30.7297 29.3949 26.3999 34.2961 26.5038 40.0876C26.5256 41.2935 26.6542 42.4873 26.8681 43.6601H40.2864C39.8225 42.4455 39.5681 41.1273 39.5681 39.7497Z" fill="url(#paint4_linear_39_717)"/>
<path d="M27.1953 45.187C28.8315 51.8064 33.0033 57.6131 35.8434 60.9816C37.2652 62.668 39.8604 62.6731 41.2825 60.9869C42.7028 59.303 45.2969 59.303 46.7171 60.9869C48.1392 62.6731 50.7344 62.668 52.1563 60.9816C54.9963 57.613 59.1681 51.8063 60.8043 45.187H27.1953Z" fill="url(#paint5_linear_39_717)"/>
<path d="M56.4423 41.6636C56.3971 44.11 55.7376 46.4842 54.8002 48.6464C53.9081 50.703 53.2 52.8378 52.732 55.0302C52.2361 57.3544 51.3642 59.4132 50.2281 61.0347C50.1263 61.18 49.8987 61.0741 49.9451 60.9029C49.9531 60.8734 49.9611 60.8437 49.969 60.8136C51.0042 56.9092 48.0385 53.0878 43.9992 53.0878C39.9599 53.0878 36.9942 56.9092 38.0294 60.8136C38.0374 60.8437 38.0454 60.8735 38.0533 60.9029C38.0998 61.0741 37.8721 61.18 37.7703 61.0347C36.6343 59.4132 35.7623 57.3544 35.2664 55.0302C34.7984 52.8377 34.0903 50.703 33.1982 48.6464C32.2609 46.4841 31.6014 44.1099 31.5561 41.6636C31.4751 37.276 34.9645 33.6068 39.3528 33.6171C40.354 33.6198 41.3112 33.8113 42.1896 34.1585C43.3547 34.6183 44.6434 34.6183 45.8086 34.1585C46.687 33.8113 47.6442 33.6198 48.6454 33.6171C53.0339 33.6068 56.5233 37.2767 56.4423 41.6636Z" fill="url(#paint6_linear_39_717)"/>
<path d="M50.8924 45.1869C50.6433 45.5306 50.5095 45.9431 50.5088 46.3761C50.5095 46.7802 50.6262 47.1659 50.8437 47.4953L52.4378 45.9012C52.5531 45.7859 52.7047 45.7283 52.8564 45.7283C53.0039 45.7283 53.1501 45.7825 53.2647 45.891C53.5069 46.1215 53.4946 46.5215 53.2578 46.7576L50.9075 49.1086C50.106 49.9094 50.1273 51.1988 50.9219 52.0051C51.521 52.6117 51.851 53.4139 51.8504 54.2675C51.8504 55.128 51.5155 55.9371 50.9069 56.5457L49.9297 57.5222C49.8082 57.1091 49.6436 56.7117 49.4404 56.3364L50.069 55.7078C50.4533 55.3229 50.6653 54.8117 50.6653 54.2674C50.6653 53.7232 50.4532 53.2121 50.069 52.8271C49.7327 52.4916 46.7292 48.8389 46.7292 48.8389C46.511 48.5953 46.5316 48.2206 46.7752 48.0024C46.8884 47.9008 47.0298 47.8501 47.1705 47.8501C47.3331 47.8508 47.495 47.9167 47.6124 48.0477L48.8976 49.4826C49.0294 49.6288 49.2675 49.5835 49.3375 49.4003C49.4822 49.0187 49.7025 48.6599 49.9969 48.3462C49.5611 47.7842 49.3237 47.0987 49.3237 46.3761C49.3237 45.9623 49.4006 45.5602 49.5495 45.187C49.7066 44.7903 49.944 44.4259 50.2521 44.1137C51.0474 43.3074 51.068 42.018 50.2672 41.2172L47.9162 38.8662C47.6794 38.6302 47.6671 38.2302 47.9093 37.9996C48.0239 37.8912 48.1701 37.8369 48.3176 37.8369C48.4693 37.8369 48.6209 37.8946 48.7362 38.0099L51.1057 40.3786C51.4364 40.7101 51.68 41.0964 51.8365 41.5088C51.9065 41.6921 52.1446 41.7373 52.2764 41.5912L53.5623 40.1563C53.679 40.0252 53.8409 39.9593 54.0036 39.9586C54.1443 39.9586 54.2863 40.0094 54.3989 40.111C54.6425 40.3291 54.663 40.7038 54.4448 40.9474C54.4448 40.9474 51.4413 44.6001 51.1058 44.9357C51.0277 45.0146 50.9563 45.0984 50.8924 45.1869Z" fill="url(#paint7_linear_39_717)"/>
<path d="M37.9294 52.8272C37.545 53.2121 37.333 53.7233 37.333 54.2675C37.333 54.8116 37.545 55.3228 37.9294 55.7079L38.5579 56.3364C38.3548 56.7118 38.1901 57.1091 38.0687 57.5222L37.0915 56.5457C36.4828 55.9371 36.1479 55.128 36.1479 54.2675C36.1472 53.4139 36.4774 52.6117 37.0764 52.0051C37.8711 51.1988 37.8923 49.9094 37.0908 49.1086L34.7406 46.7577C34.5038 46.5216 34.4915 46.1216 34.7337 45.891C34.8483 45.7826 34.9945 45.7283 35.142 45.7283C35.2937 45.7283 35.4453 45.786 35.5606 45.9013L37.1546 47.4953C37.3721 47.1659 37.4888 46.7803 37.4895 46.3761C37.4888 45.9431 37.355 45.5307 37.1059 45.1869C37.0421 45.0984 36.9707 45.0147 36.8925 44.9358C36.557 44.6003 33.5534 40.9475 33.5534 40.9475C33.3352 40.7039 33.3558 40.3293 33.5994 40.1111C33.7119 40.0095 33.854 39.9588 33.9947 39.9588C34.1574 39.9595 34.3192 40.0254 34.4359 40.1564L35.7219 41.5913C35.8537 41.7375 36.0918 41.6922 36.1618 41.509C36.3182 41.0966 36.5618 40.7102 36.8926 40.3788L39.2621 38.01C39.3774 37.8947 39.529 37.837 39.6807 37.837C39.8282 37.837 39.9744 37.8912 40.089 37.9997C40.3312 38.2303 40.3188 38.6303 40.0821 38.8664L37.7311 41.2174C36.9303 42.0181 36.9508 43.3075 37.7462 44.1138C38.0543 44.4261 38.2918 44.7904 38.4489 45.1871C38.5978 45.5603 38.6746 45.9625 38.6746 46.3763C38.6746 47.0988 38.4372 47.7843 38.0014 48.3464C38.2958 48.6599 38.5161 49.0188 38.6609 49.4004C38.7308 49.5836 38.969 49.6289 39.1007 49.4828L40.386 48.0479C40.5033 47.9168 40.6653 47.8509 40.8279 47.8502C40.9687 47.8502 41.11 47.901 41.2232 48.0025C41.4668 48.2207 41.4874 48.5954 41.2692 48.839C41.2691 48.8389 38.2656 52.4916 37.9294 52.8272Z" fill="url(#paint8_linear_39_717)"/>
<path d="M54.8002 48.6465C55.2788 47.5425 55.6842 46.383 55.9732 45.187H32.0254C32.3143 46.3829 32.7197 47.5425 33.1983 48.6465C34.0904 50.7031 34.7986 52.8379 35.2666 55.0303C35.7625 57.3545 36.6343 59.4134 37.7705 61.0348C37.8723 61.1801 38.0999 61.0742 38.0535 60.903C38.0455 60.8736 38.0375 60.8438 38.0295 60.8137C36.9943 56.9094 39.9601 53.0879 43.9994 53.0879C48.0386 53.0879 51.0044 56.9094 49.9692 60.8137C49.9612 60.8438 49.9532 60.8736 49.9452 60.903C49.8987 61.0742 50.1263 61.1801 50.2281 61.0348C51.3642 59.4133 52.2361 57.3545 52.7321 55.0303C53.2 52.8379 53.9081 50.7031 54.8002 48.6465Z" fill="url(#paint9_linear_39_717)"/>
<path d="M44.5579 34.4701C43.7616 34.5613 42.9493 34.4583 42.1896 34.1585C41.3112 33.8113 40.3539 33.6198 39.3528 33.6171C34.9645 33.6068 31.4751 37.2759 31.5561 41.6636C31.6013 44.11 32.2608 46.4842 33.1982 48.6464C34.0903 50.703 34.7984 52.8378 35.2664 55.0302C35.7623 57.3544 36.6342 59.4132 37.7703 61.0347C37.8721 61.18 38.0998 61.0741 38.0533 60.9029C38.0453 60.8734 38.0373 60.8437 38.0294 60.8136C36.9942 56.9092 39.9599 53.0878 43.9992 53.0878C44.1879 53.0878 44.3743 53.0961 44.558 53.1125V34.4701H44.5579Z" fill="url(#paint10_linear_39_717)"/>
<path d="M48.6454 33.6172C47.6442 33.62 46.687 33.8114 45.8086 34.1586C44.6434 34.6184 43.3547 34.6184 42.1896 34.1586C41.3112 33.8114 40.354 33.62 39.3528 33.6172C34.9645 33.6069 31.4751 37.276 31.5561 41.6637C31.589 43.4425 31.9476 45.1825 32.5007 46.8312H55.4976C56.0506 45.1825 56.4092 43.4424 56.4422 41.6637C56.5231 37.2767 53.0336 33.6069 48.6454 33.6172Z" fill="url(#paint11_linear_39_717)"/>
<path d="M48.6454 33.6172C47.6442 33.62 46.687 33.8114 45.8086 34.1586C44.6434 34.6184 43.3547 34.6184 42.1896 34.1586C41.3112 33.8114 40.354 33.62 39.3528 33.6172C34.9645 33.6069 31.4751 37.276 31.5561 41.6637C31.589 43.4425 31.9476 45.1825 32.5007 46.8312H55.4976C56.0506 45.1825 56.4092 43.4424 56.4422 41.6637C56.5231 37.2767 53.0336 33.6069 48.6454 33.6172Z" fill="url(#paint12_linear_39_717)"/>
<path d="M50.3938 60.5003C50.4072 60.4381 51.1633 56.83 49.9804 51.3411C49.0429 46.9906 46.6872 40.6624 40.8776 33.7714C40.385 33.6723 39.876 33.6186 39.3547 33.6172C34.9664 33.6069 31.4771 37.276 31.558 41.6637C31.6034 44.1101 32.2627 46.4843 33.2001 48.6465C34.0922 50.7031 34.8004 52.8379 35.2684 55.0303C35.7643 57.3545 36.6361 59.4134 37.7723 61.0348C37.8741 61.1801 38.1017 61.0742 38.0553 60.903C38.0473 60.8735 38.0393 60.8438 38.0313 60.8137C36.9961 56.9094 39.9618 53.0879 44.0011 53.0879C48.0404 53.0879 51.0061 56.9094 49.9709 60.8137C49.9629 60.8438 49.9549 60.8736 49.9469 60.903C49.9005 61.0742 50.1281 61.1801 50.2299 61.0348C50.2877 60.9523 50.3444 60.8678 50.4008 60.783C50.3762 60.6936 50.3723 60.5971 50.3938 60.5003Z" fill="url(#paint13_linear_39_717)"/>
<path d="M50.1753 32.3164C50.8437 32.7246 50.8343 33.6977 50.152 34.0822C49.2409 34.5955 48.1268 34.801 46.9891 34.5834C46.9754 34.5814 46.9623 34.5786 46.9493 34.5759C46.3434 34.4551 45.7175 34.6123 45.2056 35.0013C44.2202 35.7506 42.8958 36.093 41.5386 35.8337C40.6849 35.6704 39.9315 35.2908 39.3303 34.768C38.9405 34.429 38.4451 34.2554 37.936 34.2705C37.9326 34.2706 37.9291 34.2707 37.9256 34.2708C37.3738 34.2824 37.1197 33.5864 37.546 33.2359C37.6108 33.1826 37.6761 33.1301 37.742 33.0784C38.9844 32.1024 40.6523 31.8355 42.1237 32.4112C42.1316 32.4143 42.1394 32.4174 42.1474 32.4206C43.3125 32.8803 44.6012 32.8803 45.7664 32.4206C46.6448 32.0734 47.602 31.8819 48.6032 31.8792H48.6121C49.1557 31.8782 49.6913 32.0222 50.1557 32.3045C50.1622 32.3083 50.1688 32.3124 50.1753 32.3164Z" fill="url(#paint14_linear_39_717)"/>
<path d="M64 62.3569V63.0212C64 63.5618 63.5618 64 63.0212 64H24.9788C24.4383 64 24 63.5618 24 63.0212V62.3569C24 58.4259 28.6533 55.24 34.3937 55.24H36.4835C37.5983 55.24 38.698 55.519 39.6674 56.0694C40.8969 56.7674 42.3898 57.1765 44 57.1765C45.6102 57.1765 47.1031 56.7674 48.3326 56.0694C49.3021 55.5191 50.4018 55.24 51.5166 55.24H53.6063C59.3467 55.24 64 58.4259 64 62.3569Z" fill="url(#paint15_linear_39_717)"/>
<path d="M24 62.3565V63.0212C24 63.5618 24.4382 64 24.9788 64H63.0212C63.5617 64 64 63.5618 64 63.0212V62.3565C64 60.4371 62.8898 58.6954 61.0856 57.4154H26.9144C25.1102 58.6954 24 60.4371 24 62.3565Z" fill="url(#paint16_linear_39_717)"/>
<path d="M64.0008 62.3569V63.0212C64.0008 63.5618 63.5626 64 63.022 64H40.7891V56.5961C41.7647 56.9686 42.8534 57.1765 44.0008 57.1765C45.611 57.1765 47.1039 56.7674 48.3335 56.0694C49.3029 55.5191 50.4026 55.24 51.5174 55.24H53.6071C59.3475 55.24 64.0008 58.4259 64.0008 62.3569Z" fill="url(#paint17_linear_39_717)"/>
<path d="M64.0005 62.3567V63.0211C64.0005 63.5615 63.562 63.9999 63.0216 63.9999H49.8828V62.2203C50.733 62.1128 51.551 61.6995 52.1573 60.9811C53.3683 59.545 54.8216 57.6634 56.2169 55.4666C60.6938 56.2587 64.0005 59.043 64.0005 62.3567Z" fill="url(#paint18_linear_39_717)"/>
<path d="M53.8306 62.04C53.6 62.2714 53.3247 62.4329 53.0329 62.5239C52.6988 62.629 52.4031 62.8431 52.2306 63.1482C51.9506 63.6447 51.2878 64 49.9608 64C47.6729 64 47.1161 63.2125 47.1074 62.458C47.1035 62.1396 47.1992 61.84 47.3671 61.5874C47.9812 62.0282 48.7067 62.2486 49.4329 62.2486C50.4384 62.2486 51.4447 61.8259 52.1569 60.9812C52.6267 60.4235 53.1333 59.7992 53.6588 59.1145C53.6863 59.1357 53.7137 59.1584 53.7404 59.182C54.5953 59.938 54.6259 61.2455 53.8306 62.04Z" fill="url(#paint19_linear_39_717)"/>
<path d="M51.0977 59.6141C50.8295 60.1176 50.5393 60.5921 50.2295 61.0344C50.1276 61.1803 49.9001 61.0744 49.9464 60.9027C49.9542 60.8737 49.9621 60.8439 49.9699 60.8133C50.2374 59.807 50.2381 58.8062 50.0232 57.8752C50.0397 57.1788 50.0272 56.3568 49.9589 55.4266C49.8719 54.2321 49.693 52.8588 49.366 51.3411C48.2687 46.2517 45.2327 38.4564 36.9966 30.2203C36.7668 29.9905 36.7668 29.618 36.9966 29.3882C37.2264 29.1584 37.5981 29.1584 37.8279 29.3882C41.5628 33.1231 44.5762 37.0878 46.7848 41.1733C48.5566 44.4509 49.817 47.8133 50.5315 51.167C50.8538 52.6799 51.0366 54.0509 51.1291 55.2517C51.2789 57.1811 51.1981 58.6729 51.0977 59.6141Z" fill="url(#paint20_linear_39_717)"/>
<path d="M37.8284 29.3883C37.5986 29.1587 37.2262 29.1587 36.9965 29.3883C36.7668 29.6181 36.7668 29.9905 36.9965 30.2202C39.5178 32.7415 41.551 35.2212 43.1913 37.5947H44.6235C42.7365 34.7704 40.4621 32.0219 37.8284 29.3883Z" fill="url(#paint21_linear_39_717)"/>
<path d="M35.8432 60.9815C37.265 62.6679 39.8602 62.673 41.2823 60.9868C42.7026 59.3029 45.2967 59.3029 46.7169 60.9868C48.139 62.673 50.7343 62.6679 52.1561 60.9815C53.3673 59.5449 54.8205 57.6638 56.2161 55.4663C55.382 55.3187 54.5073 55.24 53.6058 55.24H51.5161C50.4012 55.24 49.3016 55.519 48.3321 56.0694C47.1027 56.7674 45.6098 57.1765 43.9996 57.1765C42.3894 57.1765 40.8965 56.7674 39.667 56.0694C38.6975 55.5191 37.5978 55.24 36.483 55.24H34.3933C33.4918 55.24 32.6172 55.3187 31.7832 55.4663C33.1788 57.6638 34.632 59.5449 35.8432 60.9815Z" fill="url(#paint22_linear_39_717)"/>
<path d="M51.5173 55.24C50.6723 55.24 49.8361 55.4007 49.0587 55.718C50.053 57.1329 50.461 58.9638 49.9706 60.8136C49.9626 60.8438 49.9546 60.8736 49.9466 60.903C49.9001 61.0742 50.1278 61.1801 50.2296 61.0347C51.3313 59.4624 52.1834 57.4781 52.6863 55.2401H51.5173V55.24Z" fill="url(#paint23_linear_39_717)"/>
<path d="M36.4835 55.24H35.3145C35.8173 57.478 36.6695 59.4623 37.7712 61.0347C37.873 61.18 38.1006 61.0741 38.0542 60.9029C38.0462 60.8735 38.0382 60.8437 38.0302 60.8136C37.5398 58.9638 37.9478 57.1329 38.9421 55.7179C38.1646 55.4007 37.3284 55.24 36.4835 55.24Z" fill="url(#paint24_linear_39_717)"/>
<path d="M57.8476 56.4951C57.6184 56.2658 57.2467 56.2658 57.0173 56.4951L56.4319 57.0805C56.2026 57.3099 56.2026 57.6815 56.4319 57.9108C56.6613 58.1401 57.0329 58.1401 57.2622 57.9108L57.8476 57.3254C58.0769 57.0961 58.0769 56.7244 57.8476 56.4951Z" fill="url(#paint25_linear_39_717)"/>
<path d="M59.8681 62.7717L60.631 62.4503C60.9299 62.3245 61.0701 61.9802 60.9442 61.6814C60.8183 61.3826 60.4741 61.2423 60.1753 61.3682L59.4123 61.6895C59.1135 61.8154 58.9732 62.1597 59.0991 62.4585C59.225 62.7573 59.5692 62.8975 59.8681 62.7717Z" fill="url(#paint26_linear_39_717)"/>
<path d="M51.6863 55.161C51.9866 55.2834 52.3291 55.1391 52.4515 54.8387L52.7637 54.072C52.886 53.7717 52.7417 53.4292 52.4414 53.3068C52.1411 53.1845 51.7986 53.3288 51.6762 53.6291L51.364 54.3958C51.2417 54.6962 51.386 55.0387 51.6863 55.161Z" fill="url(#paint27_linear_39_717)"/>
<path d="M49.3663 51.3412C49.6933 52.8587 49.8722 54.232 49.9592 55.4264C50.3421 55.333 50.734 55.2757 51.1295 55.2526C51.1295 55.2523 51.1295 55.252 51.1294 55.2517C51.0369 54.051 50.8541 52.68 50.5318 51.167C50.1063 49.17 49.4857 47.1701 48.6805 45.1866H47.3984C48.3758 47.499 48.987 49.5819 49.3663 51.3412Z" fill="url(#paint28_linear_39_717)"/>
<path d="M40.3865 32.113C39.9268 32.1274 39.4707 32.2131 39.0352 32.3667C40.1112 33.5584 41.0825 34.7364 41.9582 35.8936C42.4452 35.9429 42.9234 35.9163 43.3791 35.8228C42.4578 34.5681 41.4594 33.3303 40.3865 32.113Z" fill="url(#paint29_linear_39_717)"/>
<path d="M35.9085 30.7608L35.3242 30.1766L37.9134 27.5874L38.4976 28.1716C39.0366 28.7106 39.0366 29.5844 38.4976 30.1233L37.8601 30.7608C37.3212 31.2998 36.4474 31.2998 35.9085 30.7608Z" fill="url(#paint30_linear_39_717)"/>
<path d="M35.9085 30.7608L35.3242 30.1766L37.9134 27.5874L38.4976 28.1716C39.0366 28.7106 39.0366 29.5844 38.4976 30.1233L37.8601 30.7608C37.3212 31.2998 36.4474 31.2998 35.9085 30.7608Z" fill="url(#paint31_linear_39_717)"/>
<path d="M33.5337 31.1837L32.6062 30.2562C31.4464 29.0963 31.4464 27.2159 32.6062 26.056L33.7924 24.8698C34.9523 23.7099 36.8327 23.7099 37.9926 24.8698L38.9202 25.7973C39.4573 26.3344 39.4573 27.2051 38.9202 27.7422L35.4787 31.1836C34.9415 31.7208 34.0708 31.7208 33.5337 31.1837Z" fill="url(#paint32_linear_39_717)"/>
<path d="M33.9273 24.7438C33.8814 24.7843 33.8363 24.826 33.7924 24.8698L32.6062 26.056C31.4464 27.2159 31.4464 29.0963 32.6062 30.2562L33.5337 31.1838C34.0708 31.7209 34.9416 31.7209 35.4786 31.1838L37.7462 28.9162L33.9273 24.7438Z" fill="url(#paint33_linear_39_717)"/>
<path d="M37.4539 24.4441C36.3086 23.7346 34.7859 23.8759 33.7919 24.8699L32.6057 26.0561C31.6118 27.05 31.4704 28.5728 32.18 29.7181L37.4539 24.4441Z" fill="url(#paint34_linear_39_717)"/>
</g>
<defs>
<linearGradient id="paint0_linear_39_717" x1="44" y1="0" x2="44" y2="88" gradientUnits="userSpaceOnUse">
<stop stop-color="#EEEDFC"/>
<stop offset="1" stop-color="#EEEDFC" stop-opacity="0"/>
</linearGradient>
<linearGradient id="paint1_linear_39_717" x1="32.7731" y1="32.2259" x2="59.5083" y2="58.9612" gradientUnits="userSpaceOnUse">
<stop stop-color="#EAF9FA"/>
<stop offset="1" stop-color="#B3DAFE"/>
</linearGradient>
<linearGradient id="paint2_linear_39_717" x1="52.5754" y1="46.221" x2="58.8199" y2="48.4854" gradientUnits="userSpaceOnUse">
<stop stop-color="#B3DAFE" stop-opacity="0"/>
<stop offset="0.2438" stop-color="#ACD5FA" stop-opacity="0.244"/>
<stop offset="0.589" stop-color="#9AC5F0" stop-opacity="0.589"/>
<stop offset="0.9932" stop-color="#7CACDF" stop-opacity="0.993"/>
<stop offset="1" stop-color="#7BACDF"/>
</linearGradient>
<linearGradient id="paint3_linear_39_717" x1="40.1982" y1="35.3311" x2="46.5825" y2="28.9467" gradientUnits="userSpaceOnUse">
<stop stop-color="#B3DAFE" stop-opacity="0"/>
<stop offset="0.2438" stop-color="#ACD5FA" stop-opacity="0.244"/>
<stop offset="0.589" stop-color="#9AC5F0" stop-opacity="0.589"/>
<stop offset="0.9932" stop-color="#7CACDF" stop-opacity="0.993"/>
<stop offset="1" stop-color="#7BACDF"/>
</linearGradient>
<linearGradient id="paint4_linear_39_717" x1="35.06" y1="36.2179" x2="37.2561" y2="30.2049" gradientUnits="userSpaceOnUse">
<stop stop-color="#B3DAFE" stop-opacity="0"/>
<stop offset="0.2438" stop-color="#ACD5FA" stop-opacity="0.244"/>
<stop offset="0.589" stop-color="#9AC5F0" stop-opacity="0.589"/>
<stop offset="0.9932" stop-color="#7CACDF" stop-opacity="0.993"/>
<stop offset="1" stop-color="#7BACDF"/>
</linearGradient>
<linearGradient id="paint5_linear_39_717" x1="43.9999" y1="53.1677" x2="43.9999" y2="57.4702" gradientUnits="userSpaceOnUse">
<stop stop-color="#B3DAFE" stop-opacity="0"/>
<stop offset="0.2438" stop-color="#ACD5FA" stop-opacity="0.244"/>
<stop offset="0.589" stop-color="#9AC5F0" stop-opacity="0.589"/>
<stop offset="0.9932" stop-color="#7CACDF" stop-opacity="0.993"/>
<stop offset="1" stop-color="#7BACDF"/>
</linearGradient>
<linearGradient id="paint6_linear_39_717" x1="34.711" y1="35.5768" x2="54.4738" y2="58.2216" gradientUnits="userSpaceOnUse">
<stop stop-color="#FEDBBD"/>
<stop offset="1" stop-color="#FD8087"/>
</linearGradient>
<linearGradient id="paint7_linear_39_717" x1="40.764" y1="44.1966" x2="58.1938" y2="51.2302" gradientUnits="userSpaceOnUse">
<stop stop-color="#FD8087" stop-opacity="0"/>
<stop offset="1" stop-color="#FD8087"/>
</linearGradient>
<linearGradient id="paint8_linear_39_717" x1="26.2109" y1="42.9907" x2="48.299" y2="51.1348" gradientUnits="userSpaceOnUse">
<stop stop-color="#FD8087" stop-opacity="0"/>
<stop offset="1" stop-color="#FD8087"/>
</linearGradient>
<linearGradient id="paint9_linear_39_717" x1="43.9993" y1="51.8868" x2="43.9993" y2="55.2721" gradientUnits="userSpaceOnUse">
<stop stop-color="#FD8087" stop-opacity="0"/>
<stop offset="1" stop-color="#FD8087"/>
</linearGradient>
<linearGradient id="paint10_linear_39_717" x1="37.2967" y1="47.5689" x2="32.5621" y2="48.7011" gradientUnits="userSpaceOnUse">
<stop stop-color="#FD8087" stop-opacity="0"/>
<stop offset="1" stop-color="#FD8087"/>
</linearGradient>
<linearGradient id="paint11_linear_39_717" x1="43.999" y1="38.2658" x2="43.999" y2="33.0901" gradientUnits="userSpaceOnUse">
<stop stop-color="#FD8087" stop-opacity="0"/>
<stop offset="1" stop-color="#FD8087"/>
</linearGradient>
<linearGradient id="paint12_linear_39_717" x1="42.9263" y1="39.9153" x2="40.3187" y2="34.1969" gradientUnits="userSpaceOnUse">
<stop stop-color="#FD8087" stop-opacity="0"/>
<stop offset="1" stop-color="#FD8087"/>
</linearGradient>
<linearGradient id="paint13_linear_39_717" x1="42.9371" y1="47.8069" x2="47.7475" y2="45.4016" gradientUnits="userSpaceOnUse">
<stop stop-color="#FD8087" stop-opacity="0"/>
<stop offset="1" stop-color="#FD8087"/>
</linearGradient>
<linearGradient id="paint14_linear_39_717" x1="41.5168" y1="29.7535" x2="48.3481" y2="39.7035" gradientUnits="userSpaceOnUse">
<stop stop-color="#5A5A5A"/>
<stop offset="1" stop-color="#433F43"/>
</linearGradient>
<linearGradient id="paint15_linear_39_717" x1="42.4758" y1="54.3881" x2="45.1937" y2="68.8606" gradientUnits="userSpaceOnUse">
<stop stop-color="#FEDBBD"/>
<stop offset="1" stop-color="#FD8087"/>
</linearGradient>
<linearGradient id="paint16_linear_39_717" x1="44" y1="60.6188" x2="44" y2="64.5344" gradientUnits="userSpaceOnUse">
<stop stop-color="#FD8087" stop-opacity="0"/>
<stop offset="1" stop-color="#FD8087"/>
</linearGradient>
<linearGradient id="paint17_linear_39_717" x1="51.3213" y1="59.62" x2="62.6254" y2="59.62" gradientUnits="userSpaceOnUse">
<stop stop-color="#FD8087" stop-opacity="0"/>
<stop offset="1" stop-color="#FD8087"/>
</linearGradient>
<linearGradient id="paint18_linear_39_717" x1="58.1365" y1="62.5895" x2="53.2738" y2="59.1385" gradientUnits="userSpaceOnUse">
<stop stop-color="#FD8087" stop-opacity="0"/>
<stop offset="1" stop-color="#FD8087"/>
</linearGradient>
<linearGradient id="paint19_linear_39_717" x1="50.2098" y1="60.4521" x2="52.2098" y2="64.1776" gradientUnits="userSpaceOnUse">
<stop stop-color="#FEF0AE"/>
<stop offset="1" stop-color="#FAC600"/>
</linearGradient>
<linearGradient id="paint20_linear_39_717" x1="34.7479" y1="30.9088" x2="53.6891" y2="58.6894" gradientUnits="userSpaceOnUse">
<stop stop-color="#EAF9FA"/>
<stop offset="1" stop-color="#B3DAFE"/>
</linearGradient>
<linearGradient id="paint21_linear_39_717" x1="39.5879" y1="32.5696" x2="37.2492" y2="30.231" gradientUnits="userSpaceOnUse">
<stop stop-color="#B3DAFE" stop-opacity="0"/>
<stop offset="0.2438" stop-color="#ACD5FA" stop-opacity="0.244"/>
<stop offset="0.589" stop-color="#9AC5F0" stop-opacity="0.589"/>
<stop offset="0.9932" stop-color="#7CACDF" stop-opacity="0.993"/>
<stop offset="1" stop-color="#7BACDF"/>
</linearGradient>
<linearGradient id="paint22_linear_39_717" x1="43.9997" y1="51.0849" x2="43.9997" y2="62.2315" gradientUnits="userSpaceOnUse">
<stop stop-color="#B3DAFE" stop-opacity="0"/>
<stop offset="0.2438" stop-color="#ACD5FA" stop-opacity="0.244"/>
<stop offset="0.589" stop-color="#9AC5F0" stop-opacity="0.589"/>
<stop offset="0.9932" stop-color="#7CACDF" stop-opacity="0.993"/>
<stop offset="1" stop-color="#7BACDF"/>
</linearGradient>
<linearGradient id="paint23_linear_39_717" x1="50.8725" y1="54.7974" x2="50.8725" y2="61.2886" gradientUnits="userSpaceOnUse">
<stop stop-color="#FD8087" stop-opacity="0"/>
<stop offset="1" stop-color="#FD8087"/>
</linearGradient>
<linearGradient id="paint24_linear_39_717" x1="37.1283" y1="54.7974" x2="37.1283" y2="61.2886" gradientUnits="userSpaceOnUse">
<stop stop-color="#FD8087" stop-opacity="0"/>
<stop offset="1" stop-color="#FD8087"/>
</linearGradient>
<linearGradient id="paint25_linear_39_717" x1="56.1868" y1="55.7998" x2="58.4005" y2="59.0466" gradientUnits="userSpaceOnUse">
<stop stop-color="#F28CC4"/>
<stop offset="1" stop-color="#E41F2D"/>
</linearGradient>
<linearGradient id="paint26_linear_39_717" x1="59.0607" y1="60.6551" x2="61.2917" y2="63.9273" gradientUnits="userSpaceOnUse">
<stop stop-color="#F28CC4"/>
<stop offset="1" stop-color="#E41F2D"/>
</linearGradient>
<linearGradient id="paint27_linear_39_717" x1="50.8938" y1="52.5117" x2="53.6136" y2="56.5007" gradientUnits="userSpaceOnUse">
<stop stop-color="#F28CC4"/>
<stop offset="1" stop-color="#E41F2D"/>
</linearGradient>
<linearGradient id="paint28_linear_39_717" x1="49.2257" y1="49.7888" x2="49.9054" y2="57.109" gradientUnits="userSpaceOnUse">
<stop stop-color="#FD8087" stop-opacity="0"/>
<stop offset="1" stop-color="#FD8087"/>
</linearGradient>
<linearGradient id="paint29_linear_39_717" x1="40.9723" y1="33.255" x2="42.1488" y2="37.4641" gradientUnits="userSpaceOnUse">
<stop stop-color="#1A1A1A" stop-opacity="0"/>
<stop offset="1" stop-color="#1A1A1A"/>
</linearGradient>
<linearGradient id="paint30_linear_39_717" x1="39.0616" y1="29.4753" x2="35.9917" y2="29.2982" gradientUnits="userSpaceOnUse">
<stop stop-color="#C8EFFE"/>
<stop offset="1" stop-color="#62DBFB"/>
</linearGradient>
<linearGradient id="paint31_linear_39_717" x1="39.0616" y1="29.4753" x2="35.9917" y2="29.2982" gradientUnits="userSpaceOnUse">
<stop stop-color="#07B2CD" stop-opacity="0"/>
<stop offset="0.3759" stop-color="#06AEC9" stop-opacity="0.376"/>
<stop offset="0.7648" stop-color="#04A3BD" stop-opacity="0.765"/>
<stop offset="1" stop-color="#0199B1"/>
</linearGradient>
<linearGradient id="paint32_linear_39_717" x1="37.303" y1="25.1841" x2="33.1492" y2="29.8014" gradientUnits="userSpaceOnUse">
<stop stop-color="#C8EFFE"/>
<stop offset="1" stop-color="#62DBFB"/>
</linearGradient>
<linearGradient id="paint33_linear_39_717" x1="34.5884" y1="28.1667" x2="32.5621" y2="30.5451" gradientUnits="userSpaceOnUse">
<stop stop-color="#07B2CD" stop-opacity="0"/>
<stop offset="0.3759" stop-color="#06AEC9" stop-opacity="0.376"/>
<stop offset="0.7648" stop-color="#04A3BD" stop-opacity="0.765"/>
<stop offset="1" stop-color="#0199B1"/>
</linearGradient>
<linearGradient id="paint34_linear_39_717" x1="34.941" y1="22.0423" x2="34.2119" y2="30.823" gradientUnits="userSpaceOnUse">
<stop stop-color="#07B2CD" stop-opacity="0"/>
<stop offset="0.3759" stop-color="#06AEC9" stop-opacity="0.376"/>
<stop offset="0.7648" stop-color="#04A3BD" stop-opacity="0.765"/>
<stop offset="1" stop-color="#0199B1"/>
</linearGradient>
<clipPath id="clip0_39_717">
<rect width="40" height="40" fill="white" transform="translate(24 24)"/>
</clipPath>
</defs>
</svg>
